<svg width="47" height="30" viewBox="0 0 47 30" fill="none" xmlns="http://www.w3.org/2000/svg">
<g filter="url(#filter0_d_121_54021)">
<path d="M32.1124 4.29813L32.1125 4.29821L32.1568 4.34054C33.2959 5.42795 34.4434 6.52342 36.0611 6.90326C38.1679 7.3988 40.0817 6.95501 41.7714 5.61818C41.0885 7.07389 40.1576 8.18812 38.9872 8.98112C37.511 9.98134 35.6101 10.5 33.2502 10.5C30.9127 10.5 29.2336 9.99094 27.9139 9.27655C26.584 8.55668 25.597 7.61817 24.6374 6.70262C24.6374 6.70256 24.6373 6.70251 24.6373 6.70245L24.5949 6.66203C23.4552 5.57324 22.3073 4.47673 20.6893 4.09671C18.5824 3.60171 16.6685 4.04578 14.9784 5.38293C15.6614 3.92672 16.5924 2.81219 17.7629 2.01903C19.2391 1.01869 21.14 0.5 23.5004 0.5C25.8379 0.5 27.5168 1.00889 28.8363 1.72326C30.166 2.44313 31.1529 3.38187 32.1124 4.29813ZM26.3105 17.904L26.3107 17.904C28.4178 18.399 30.3318 17.9549 32.022 16.6175C31.3391 18.0737 30.4081 19.1881 29.2376 19.9812C27.7614 20.9814 25.8605 21.5 23.5004 21.5C21.1625 21.5 19.4834 20.9909 18.1638 20.2766C16.834 19.5567 15.8472 18.6182 14.8876 17.7026C14.8876 17.7026 14.8875 17.7025 14.8875 17.7025L14.8452 17.6621C13.7053 16.5732 12.5574 15.4767 10.9387 15.0967C8.83213 14.6017 6.91825 15.0459 5.22817 16.3832C5.91103 14.9269 6.84205 13.8123 8.01259 13.0191C9.48884 12.0187 11.3897 11.5 13.7498 11.5C16.0872 11.5 17.7663 12.0092 19.0861 12.7238C20.416 13.4439 21.4031 14.3826 22.3627 15.2982C22.3627 15.2982 22.3627 15.2982 22.3627 15.2983L22.407 15.3405C23.5461 16.428 24.6936 17.5234 26.3105 17.904Z" stroke="white" shape-rendering="crispEdges"/>
</g>
<defs>
<filter id="filter0_d_121_54021" x="0.263855" y="0" width="46.4721" height="30" filterUnits="userSpaceOnUse" color-interpolation-filters="sRGB">
<feFlood flood-opacity="0" result="BackgroundImageFix"/>
<feColorMatrix in="SourceAlpha" type="matrix" values="0 0 0 0 0 0 0 0 0 0 0 0 0 0 0 0 0 0 127 0" result="hardAlpha"/>
<feOffset dy="4"/>
<feGaussianBlur stdDeviation="2"/>
<feComposite in2="hardAlpha" operator="out"/>
<feColorMatrix type="matrix" values="0 0 0 0 0 0 0 0 0 0 0 0 0 0 0 0 0 0 0.25 0"/>
<feBlend mode="normal" in2="BackgroundImageFix" result="effect1_dropShadow_121_54021"/>
<feBlend mode="normal" in="SourceGraphic" in2="effect1_dropShadow_121_54021" result="shape"/>
</filter>
</defs>
</svg>
